<svg width="20" height="20" viewBox="0 0 20 20" fill="none" xmlns="http://www.w3.org/2000/svg">
    <circle cx="10" cy="10" r="9.5" fill="#E7E7E9" stroke="#A8A8A8"/>
    <path d="M11.1739 9.99929L14.7537 6.42723C14.9105 6.27044 14.9986 6.05779 14.9986 5.83605C14.9986 5.61432 14.9105 5.40167 14.7537 5.24487C14.597 5.08808 14.3843 5 14.1626 5C13.9409 5 13.7283 5.08808 13.5715 5.24487L10 8.82526L6.42845 5.24487C6.27168 5.08808 6.05906 5 5.83736 5C5.61565 5 5.40303 5.08808 5.24626 5.24487C5.08949 5.40167 5.00142 5.61432 5.00142 5.83605C5.00142 6.05779 5.08949 6.27044 5.24626 6.42723L8.82613 9.99929L5.24626 13.5713C5.16823 13.6488 5.10629 13.7408 5.06403 13.8423C5.02176 13.9438 5 14.0526 5 14.1625C5 14.2724 5.02176 14.3813 5.06403 14.4827C5.10629 14.5842 5.16823 14.6763 5.24626 14.7537C5.32365 14.8317 5.41573 14.8937 5.51718 14.936C5.61864 14.9782 5.72745 15 5.83736 15C5.94726 15 6.05608 14.9782 6.15753 14.936C6.25898 14.8937 6.35106 14.8317 6.42845 14.7537L10 11.1733L13.5715 14.7537C13.6489 14.8317 13.741 14.8937 13.8425 14.936C13.9439 14.9782 14.0527 15 14.1626 15C14.2725 15 14.3814 14.9782 14.4828 14.936C14.5843 14.8937 14.6763 14.8317 14.7537 14.7537C14.8318 14.6763 14.8937 14.5842 14.936 14.4827C14.9782 14.3813 15 14.2724 15 14.1625C15 14.0526 14.9782 13.9438 14.936 13.8423C14.8937 13.7408 14.8318 13.6488 14.7537 13.5713L11.1739 9.99929Z"
          fill="#A8A8A8"/>
</svg>
