<svg width="15" height="15" viewBox="0 0 15 15" fill="none" xmlns="http://www.w3.org/2000/svg">
    <path d="M9.2608 7.49893L14.6306 2.14085C14.8658 1.90566 14.9979 1.58668 14.9979 1.25408C14.9979 0.921478 14.8658 0.602498 14.6306 0.367312C14.3955 0.132126 14.0765 0 13.744 0C13.4114 0 13.0925 0.132126 12.8573 0.367312L7.5 5.73789L2.14268 0.367312C1.90752 0.132126 1.58859 -2.47808e-09 1.25603 0C0.923478 2.47809e-09 0.604543 0.132126 0.369391 0.367312C0.134239 0.602498 0.00213119 0.921478 0.00213119 1.25408C0.00213119 1.58668 0.134239 1.90566 0.369391 2.14085L5.7392 7.49893L0.369391 12.857C0.252343 12.9731 0.159441 13.1113 0.0960411 13.2635C0.0326416 13.4157 0 13.5789 0 13.7438C0 13.9087 0.0326416 14.0719 0.0960411 14.2241C0.159441 14.3763 0.252343 14.5144 0.369391 14.6306C0.485482 14.7476 0.6236 14.8405 0.775777 14.9039C0.927954 14.9674 1.09118 15 1.25603 15C1.42089 15 1.58411 14.9674 1.73629 14.9039C1.88847 14.8405 2.02659 14.7476 2.14268 14.6306L7.5 9.25998L12.8573 14.6306C12.9734 14.7476 13.1115 14.8405 13.2637 14.9039C13.4159 14.9674 13.5791 15 13.744 15C13.9088 15 14.072 14.9674 14.2242 14.9039C14.3764 14.8405 14.5145 14.7476 14.6306 14.6306C14.7477 14.5144 14.8406 14.3763 14.904 14.2241C14.9674 14.0719 15 13.9087 15 13.7438C15 13.5789 14.9674 13.4157 14.904 13.2635C14.8406 13.1113 14.7477 12.9731 14.6306 12.857L9.2608 7.49893Z"
          fill="black"/>
</svg>
