<svg id="Layer_1" enable-background="new 0 0 512 512" height="512" viewBox="0 0 512 512" width="512"
     xmlns="http://www.w3.org/2000/svg"><g><path
        d="m495.46 40.56-98.4 402.08c-7.67 31.33-35.74 53.36-67.99 53.36h-53.07c-11.05 0-20-8.95-20-20l-26.56-156.01-5.44-31.99-1.38-.24-186.62-31.76c-11.05 0-20-8.95-20-20v-53.07c0-32.25 22.03-60.32 53.36-67.99l402.08-98.4c14.43-3.37 27.39 9.59 24.02 24.02z"
        fill="#e2e0e0"/><path
        d="m400.31 155.31-160 160c-3.01 3.02-6.93 4.58-10.87 4.68l-5.44-31.99-1.38-.24 155.07-155.07c6.24-6.25 16.38-6.25 22.62 0 6.25 6.24 6.25 16.38 0 22.62z"
        fill="#cecccc"/><path
        d="m501.44 10.56c-8.86-8.859-21.435-12.449-33.636-9.603-.056.013-.112.026-.168.04l-402.079 98.403c-38.599 9.446-65.557 43.797-65.557 83.535v53.065c0 19.333 15.319 35.156 34.457 35.967l175.674 29.902 29.902 175.674c.811 19.138 16.634 34.457 35.967 34.457h53.065c39.738 0 74.089-26.958 83.535-65.556l98.402-402.08c.014-.056.027-.112.04-.168 2.848-12.202-.742-24.776-9.602-33.636zm-21.547 26.31-98.375 401.967c-5.931 24.237-27.5 41.164-52.452 41.164h-53.066c-2.206 0-4-1.794-4-4 0-.9-.076-1.798-.227-2.685l-30.613-179.849 154.153-154.153c6.249-6.248 6.249-16.379 0-22.627-6.248-6.249-16.379-6.249-22.627 0l-154.153 154.153-179.848-30.613c-.887-.151-1.785-.227-2.685-.227-2.206 0-4-1.794-4-4v-53.065c0-24.952 16.927-46.521 41.164-52.452l401.966-98.375c1.758-.389 2.972.37 3.683 1.079.709.71 1.469 1.923 1.08 3.683z"/></g></svg>