<svg width="394" height="69" viewBox="0 0 394 69" fill="none" xmlns="http://www.w3.org/2000/svg">
<path d="M48.488 14.84C46.832 14.12 45.176 13.832 43.52 13.832C41 13.832 38.696 14.336 36.608 15.416C34.664 16.496 33.008 18.152 31.712 20.384C30.992 18.512 29.84 17 28.4 15.776C26.6 14.48 24.224 13.832 21.344 13.832C18.248 13.832 15.656 14.552 13.784 16.064C12.632 16.928 11.48 18.368 10.256 20.312V14.768H0.464V53H10.688V29.96C10.688 27.872 10.976 26.288 11.48 25.208C12.488 23.336 14.36 22.472 17.24 22.472C19.688 22.472 21.344 23.336 22.208 25.208C22.64 26.216 22.928 27.872 22.928 30.176V53H33.008V30.176C33.008 28.448 33.296 27.008 33.8 25.784C34.88 23.48 36.752 22.328 39.488 22.328C41.936 22.328 43.592 23.192 44.456 24.992C44.888 26 45.176 27.152 45.176 28.592V53H55.4L55.472 28.88C55.472 26.36 55.4 24.488 55.112 23.192C54.752 21.248 54.032 19.592 52.952 18.296C51.584 16.64 50.144 15.488 48.488 14.84ZM64.9524 60.416L63.6564 60.344V68.336C64.8084 68.408 65.6004 68.48 66.1044 68.48H68.2644C72.6564 68.48 75.6084 67.616 77.1204 65.888C78.5604 64.16 80.5764 59.624 83.0964 52.352L96.2724 14.696H85.6164L77.6964 42.92L69.3444 14.696H58.1844L72.2964 54.656C72.3684 54.944 72.1524 55.736 71.6484 57.032C71.1444 58.256 70.6404 59.12 69.9924 59.48C69.4164 59.912 68.6244 60.2 67.7604 60.344C66.8964 60.416 65.9604 60.488 64.9524 60.416ZM117.56 0.871997L115.472 0.655996H113.744C108.2 0.655996 104.672 1.808 103.232 4.112C101.864 5.624 101.144 8.432 101.144 12.536V15.056H95.6722V22.112H101.288V53H111.296V22.112H117.848V15.056H111.296V11.816C111.296 11.024 111.512 10.376 112.016 9.728C112.52 9.152 113.456 8.792 114.752 8.864C116.048 8.864 117.056 8.936 117.56 9.008V0.871997ZM136.137 29.672L132.753 30.104C128.865 30.608 125.913 31.4 123.897 32.552C120.297 34.712 118.497 38.096 118.497 42.776C118.497 46.448 119.577 49.256 121.881 51.2C124.113 53.216 126.993 54.224 130.449 54.224C133.185 54.224 135.633 53.576 137.793 52.352C139.593 51.272 141.177 49.976 142.545 48.536C142.617 49.4 142.761 50.12 142.833 50.84C142.977 51.488 143.193 52.208 143.481 53H154.353V51.488C153.705 51.2 153.201 50.84 152.913 50.336C152.553 49.904 152.409 48.968 152.337 47.672C152.265 45.944 152.265 44.504 152.265 43.28V25.712C152.265 21.104 150.609 17.936 147.369 16.28C144.057 14.624 140.385 13.76 136.137 13.76C129.729 13.76 125.193 15.488 122.529 18.8C120.873 20.96 119.937 23.768 119.721 27.08H129.369C129.657 25.64 130.089 24.488 130.809 23.552C131.745 22.4 133.473 21.824 135.849 21.824C137.937 21.824 139.521 22.112 140.601 22.688C141.753 23.264 142.257 24.416 142.257 26C142.257 27.296 141.537 28.232 140.097 28.808C139.305 29.168 138.009 29.456 136.137 29.672ZM142.185 34.352V38.096C142.113 41.408 141.177 43.784 139.377 45.008C137.577 46.304 135.561 46.952 133.401 46.952C132.033 46.952 130.953 46.52 129.945 45.728C129.009 45.008 128.505 43.784 128.505 42.056C128.505 40.112 129.297 38.744 130.881 37.808C131.745 37.304 133.257 36.8 135.417 36.44L137.649 36.008C138.801 35.792 139.665 35.576 140.313 35.288C140.961 35.072 141.609 34.784 142.185 34.352ZM181.473 28.448H191.697C191.193 22.976 189.393 19.16 186.297 17C183.273 14.84 179.313 13.76 174.489 13.76C168.873 13.76 164.409 15.56 161.241 19.232C158.001 22.904 156.417 28.016 156.417 34.64C156.417 40.472 157.857 45.224 160.737 48.824C163.689 52.496 168.225 54.368 174.345 54.368C180.537 54.368 185.217 52.136 188.313 47.744C190.257 45.08 191.409 42.2 191.625 39.104H181.401C181.185 41.12 180.609 42.776 179.601 44C178.593 45.296 176.937 45.944 174.633 45.944C171.321 45.944 169.017 44.36 167.865 41.12C167.217 39.464 166.857 37.16 166.857 34.352C166.857 31.4 167.217 29.024 167.865 27.296C169.089 23.912 171.393 22.256 174.777 22.256C177.153 22.256 178.881 22.976 180.033 24.56C180.825 25.712 181.257 27.008 181.473 28.448ZM219.824 15.488C217.232 14.264 214.352 13.688 211.184 13.688C205.784 13.688 201.464 15.416 198.08 18.944C194.696 22.544 193.04 27.584 193.04 34.208C193.04 41.264 194.912 46.448 198.656 49.544C202.328 52.712 206.648 54.296 211.544 54.296C217.448 54.296 222.056 52.424 225.296 48.68C227.384 46.304 228.608 44 228.896 41.768H218.6C218.096 42.848 217.448 43.784 216.8 44.36C215.432 45.512 213.848 46.16 211.76 46.16C209.816 46.16 208.088 45.656 206.72 44.72C204.488 43.136 203.264 40.472 203.12 36.584H229.328C229.4 33.344 229.256 30.752 229.04 29.024C228.608 26 227.6 23.408 226.088 21.104C224.432 18.512 222.344 16.64 219.824 15.488ZM205.784 24.128C207.08 22.688 208.88 21.896 211.184 21.896C213.344 21.896 215.144 22.616 216.584 23.984C218.024 25.352 218.744 27.368 218.96 30.032H203.408C203.696 27.512 204.488 25.568 205.784 24.128ZM266.096 19.304C263.288 15.632 259.256 13.832 254.288 13.832C251.48 13.832 249.176 14.408 247.376 15.56C245.864 16.568 244.424 17.864 243.2 19.664V1.232H233.192V53H242.984V48.176C244.352 50.048 245.576 51.416 246.728 52.136C248.672 53.36 251.192 54.008 254.36 54.008C259.4 54.008 263.36 52.064 266.168 48.176C268.976 44.216 270.344 39.32 270.344 33.344C270.344 27.584 268.976 22.904 266.096 19.304ZM257.672 42.632C256.232 44.72 254.288 45.728 251.696 45.728C248.672 45.728 246.512 44.648 245.072 42.488C243.632 40.4 242.84 37.664 242.84 34.352C242.84 31.616 243.2 29.312 243.92 27.512C245.288 24.272 247.808 22.616 251.408 22.616C255.008 22.616 257.456 24.272 258.824 27.656C259.472 29.456 259.832 31.688 259.832 34.424C259.832 37.808 259.112 40.544 257.672 42.632ZM307.016 48.32C310.256 44.36 311.84 39.536 311.84 33.92C311.84 28.376 310.256 23.552 307.016 19.52C303.776 15.488 298.88 13.472 292.256 13.472C285.704 13.472 280.808 15.488 277.568 19.52C274.328 23.552 272.672 28.376 272.672 33.92C272.672 39.536 274.328 44.36 277.568 48.32C280.808 52.352 285.704 54.368 292.256 54.368C298.88 54.368 303.776 52.352 307.016 48.32ZM298.952 42.776C297.368 44.864 295.136 45.944 292.256 45.944C289.304 45.944 287.072 44.864 285.488 42.776C283.904 40.76 283.112 37.736 283.112 33.92C283.112 30.104 283.904 27.08 285.488 24.992C287.072 22.976 289.304 21.896 292.256 21.896C295.136 21.896 297.368 22.976 298.952 24.992C300.536 27.08 301.328 30.104 301.328 33.92C301.328 37.736 300.536 40.76 298.952 42.776ZM348.511 48.32C351.751 44.36 353.335 39.536 353.335 33.92C353.335 28.376 351.751 23.552 348.511 19.52C345.271 15.488 340.375 13.472 333.751 13.472C327.199 13.472 322.303 15.488 319.063 19.52C315.823 23.552 314.167 28.376 314.167 33.92C314.167 39.536 315.823 44.36 319.063 48.32C322.303 52.352 327.199 54.368 333.751 54.368C340.375 54.368 345.271 52.352 348.511 48.32ZM340.447 42.776C338.863 44.864 336.631 45.944 333.751 45.944C330.799 45.944 328.567 44.864 326.983 42.776C325.399 40.76 324.607 37.736 324.607 33.92C324.607 30.104 325.399 27.08 326.983 24.992C328.567 22.976 330.799 21.896 333.751 21.896C336.631 21.896 338.863 22.976 340.447 24.992C342.031 27.08 342.823 30.104 342.823 33.92C342.823 37.736 342.031 40.76 340.447 42.776ZM367.759 29.24V1.376H357.895V53H367.759V40.976L371.935 36.584L381.079 53H393.175L379.279 29.528L392.671 14.84H380.287L367.759 29.24Z"
      fill="#EE8F66"/>
</svg>
